<?xml version="1.0" encoding="UTF-8"?>
<!-- Created with Inkscape (http://www.inkscape.org/) -->
<svg width="453.54" height="183.25" version="1.1" viewBox="0 0 453.54 183.25" xmlns="http://www.w3.org/2000/svg">
 <defs>
  <clipPath id="clipPath6">
   <path transform="translate(-115.83 -101.18)" d="M 0,137.441 H 340.157 V 0 H 0 Z"/>
  </clipPath>
  <clipPath id="clipPath8">
   <path transform="translate(-92.157 -53.588)" d="M 0,137.441 H 340.157 V 0 H 0 Z"/>
  </clipPath>
  <clipPath id="clipPath10">
   <path transform="translate(-163.69 -53.642)" d="M 0,137.441 H 340.157 V 0 H 0 Z"/>
  </clipPath>
  <clipPath id="clipPath12">
   <path transform="translate(-310.5 -53.642)" d="M 0,137.441 H 340.157 V 0 H 0 Z"/>
  </clipPath>
  <clipPath id="clipPath14">
   <path transform="translate(-252.66 -45.521)" d="M 0,137.441 H 340.157 V 0 H 0 Z"/>
  </clipPath>
  <clipPath id="clipPath16">
   <path transform="translate(-74.128 -59.122)" d="M 0,137.441 H 340.157 V 0 H 0 Z"/>
  </clipPath>
  <clipPath id="clipPath18">
   <path transform="translate(-290.75 -114.09)" d="M 0,137.441 H 340.157 V 0 H 0 Z"/>
  </clipPath>
 </defs>
 <g fill="#dc605d">
  <path transform="matrix(1.3333 0 0 -1.3333 0 183.25)" d="m89.088 114.15h-12.561v-68.71h12.561z"/>
  <path transform="matrix(1.3333 0 0 -1.3333 219.09 73.558)" d="m0 0 11.024 10.408 23.039-47.243h14.589l-34.221 69.032-9.501-9.292 0.01-0.02-11.118-10.838z"/>
  <path transform="matrix(1.3333 0 0 -1.3333 263.93 73.759)" d="m0 0 11.024 10.366 23.039-47.05h14.589l-34.221 68.75-9.501-9.254 0.01-0.021-11.118-10.793z"/>
  <path transform="matrix(1.3333 0 0 -1.3333 99.673 61.884)" d="m0 0 0.323 22.959-50.888-68.549h16.801z"/>
  <path transform="matrix(1.3333 0 0 -1.3333 154.45 48.342)" d="m0 0c-0.03-0.076-0.063-0.151-0.092-0.228 0.478 0.103 0.973 0.158 1.482 0.158h17.945c3.88 0 7.025-3.145 7.025-7.025v-0.899c0-3.267-2.23-6.012-5.25-6.799l-17.916-0.211-5.663-11.97h11.464c-0.023-0.048-0.049-0.094-0.072-0.142h17.513c3.605 0 6.527-2.922 6.527-6.526v-2.85c0-3.393-2.591-6.181-5.902-6.496l-15.191-0.03h-3.498c1e-3 -3e-3 2e-3 -5e-3 3e-3 -7e-3l-8.374-0.017-6.523-12.678h32.558c0.329-0.016 0.659-0.027 0.992-0.027 11.066 0 20.037 8.971 20.037 20.037 0 7.997-4.685 14.897-11.46 18.111 1.802 2.996 2.84 6.504 2.84 10.255 0 11.005-8.921 19.926-19.925 19.926-0.295 0-0.588-8e-3 -0.879-0.021h-41.367l9.475-12.561z" clip-path="url(#clipPath6)"/>
  <path transform="matrix(1.3333 0 0 -1.3333 122.88 111.8)" d="m0 0c0-4.531 3.673-8.204 8.204-8.204s8.204 3.673 8.204 8.204-3.673 8.204-8.204 8.204-8.204-3.673-8.204-8.204" clip-path="url(#clipPath8)"/>
  <path transform="matrix(1.3333 0 0 -1.3333 218.25 111.73)" d="m0 0c0-4.531 3.673-8.204 8.204-8.204s8.204 3.673 8.204 8.204-3.673 8.204-8.204 8.204-8.204-3.673-8.204-8.204" clip-path="url(#clipPath10)"/>
  <path transform="matrix(1.3333 0 0 -1.3333 413.99 111.73)" d="m0 0c0 4.531-3.673 8.204-8.204 8.204s-8.204-3.673-8.204-8.204 3.673-8.204 8.204-8.204 8.204 3.673 8.204 8.204" clip-path="url(#clipPath12)"/>
  <path transform="matrix(1.3333 0 0 -1.3333 336.89 122.56)" d="m0 0 20.425-0.083v12.311l-13.178 0.249-7.113 14.058h11.058l6.871 13.198-17.996-0.18 0.014 16.86 17.982 0.054v12.089l-32.208 0.125 0.309-42.146z" clip-path="url(#clipPath14)"/>
  <path transform="matrix(1.3333 0 0 -1.3333 98.838 104.43)" d="m0 0 0.33-0.227c0.351-0.242 0.44-0.723 0.198-1.074l-7.46-10.841c-0.241-0.351-0.722-0.44-1.073-0.198l-0.33 0.227c-0.352 0.241-0.441 0.722-0.199 1.074l7.46 10.841c0.242 0.351 0.723 0.44 1.074 0.198m-12.471-11.788c-0.281-0.398-0.832-0.493-1.23-0.212l-0.147 0.105c-0.398 0.281-0.493 0.831-0.212 1.229l10.535 14.907c0.282 0.398 0.832 0.493 1.23 0.212l0.148-0.105c0.397-0.281 0.492-0.831 0.211-1.229zm-4.718 2.33-0.147 0.104c-0.398 0.282-0.493 0.832-0.212 1.23l10.535 14.907c0.281 0.398 0.832 0.493 1.23 0.211l0.147-0.104c0.398-0.281 0.493-0.832 0.212-1.229l-10.535-14.908c-0.282-0.397-0.832-0.492-1.23-0.211m-0.9 4.909c-0.251-0.345-0.734-0.422-1.079-0.171l-0.324 0.236c-0.345 0.25-0.421 0.733-0.17 1.078l7.737 10.645c0.251 0.345 0.733 0.422 1.078 0.171l0.325-0.236c0.345-0.25 0.421-0.733 0.17-1.078zm8.516 14.291c-6.484 0-11.74-5.256-11.74-11.74s5.256-11.74 11.74-11.74 11.741 5.256 11.741 11.74-5.257 11.74-11.741 11.74" clip-path="url(#clipPath16)"/>
  <path transform="matrix(1.3333 0 0 -1.3333 387.66 31.135)" d="m0 0v0.058h-12.561v-68.603h12.561v56.453c17.131-1.323 30.582-15.686 30.516-33.162-0.064-17.091-14.477-33.517-31.065-33.68-3.674-0.122-249.98-0.012-274.24-1e-3l-9.023-12.183h283.9v0.114c23.27 0.638 42.372 21.269 42.372 45.499 0 24.263-18.78 44.094-42.468 45.505" clip-path="url(#clipPath18)"/>
 </g>
</svg>
